<?xml version="1.0" encoding="utf-8"?>
<!-- Generator: Adobe Illustrator 21.0.2, SVG Export Plug-In . SVG Version: 6.00 Build 0)  -->
<svg version="1.1" id="Layer_1" xmlns="http://www.w3.org/2000/svg" xmlns:xlink="http://www.w3.org/1999/xlink" x="0px" y="0px"
	 viewBox="0 0 155 25" style="enable-background:new 0 0 155 25;" xml:space="preserve">
<style type="text/css">
	.st0{fill:#333333;}
</style>
<g>
	<path class="st0" d="M11,7.2v0.7c0,2-0.6,3.3-2,3.9v0.1c1.7,0.6,2.3,2.1,2.3,4.2v1.6c0,3-1.6,4.7-4.7,4.7H1.8V2.7h4.7
		C9.6,2.7,11,4.2,11,7.2z M4.8,5.5v5.2h1.2c1.2,0,1.9-0.5,1.9-2.1V7.5c0-1.4-0.5-2-1.6-2H4.8z M4.8,13.5v6.1h1.8
		c1,0,1.6-0.5,1.6-1.9v-1.7c0-1.8-0.6-2.4-2-2.4H4.8z"/>
	<path class="st0" d="M27.5,22.4c-0.2-0.5-0.3-0.8-0.3-2.4l0-3.1c0-1.8-0.6-2.5-2-2.5l-1.1,0l0,8l-3.1,0l0-19.7l4.7,0
		c3.2,0,4.6,1.5,4.6,4.5l0,1.5c0,2-0.6,3.3-2,4l0,0.1c1.5,0.6,2.1,2.1,2.1,4.2l0,3c0,1,0,1.7,0.3,2.4L27.5,22.4z M24.1,5.5l0,6.1
		l1.2,0c1.2,0,1.9-0.5,1.9-2.1l0-1.9c0-1.4-0.5-2-1.6-2L24.1,5.5z"/>
	<path class="st0" d="M41.5,2.7l3.1,0l0,19.7l-3.1,0L41.5,2.7z"/>
	<path class="st0" d="M56.1,2.6l3.1,0l0,16.9l5.1,0l0,2.8l-8.2,0L56.1,2.6z"/>
	<path class="st0" d="M73.4,2.7l3.1,0l0,16.9l5.1,0l0,2.8l-8.2,0L73.4,2.7z"/>
	<path class="st0" d="M91.5,2.7l3.1,0l0,19.7l-3.1,0L91.5,2.7z"/>
	<path class="st0" d="M115.4,22.4l-3.1,0l-0.5-3.6l-3.8,0l-0.5,3.6l-2.8,0l3.1-19.7l4.5,0L115.4,22.4z M108.3,16.1l3,0l-1.5-10
		l-0.1,0L108.3,16.1z"/>
	<path class="st0" d="M127.4,8.1L127.4,8.1l0,14.3l-2.8,0l0-19.7l3.9,0l3.1,11.8l0.1,0l0-11.8l2.8,0l0,19.7l-3.2,0L127.4,8.1z"/>
	<path class="st0" d="M144.2,2.7l9.6,0l0,2.8l-3.2,0l0,16.9l-3.1,0l0-16.9l-3.2,0L144.2,2.7z"/>
</g>
</svg>
